<svg width="68" height="30" viewBox="0 0 68 30" fill="none" xmlns="http://www.w3.org/2000/svg">
<g id="Car">
<path d="M15.4604 29.4C13.3338 29.4 11.3534 29.0533 9.51929 28.36C7.71171 27.64 6.13008 26.64 4.77439 25.36C3.44529 24.0533 2.40859 22.52 1.6643 20.76C0.92 19 0.547852 17.08 0.547852 15C0.547852 12.92 0.92 11 1.6643 9.23998C2.40859 7.47998 3.45858 5.95998 4.81427 4.67998C6.16995 3.37331 7.75158 2.37331 9.55916 1.67998C11.3667 0.959976 13.3471 0.599976 15.5002 0.599976C17.7863 0.599976 19.873 0.999976 21.7603 1.79998C23.6476 2.57331 25.2426 3.73331 26.5451 5.27997L23.1957 8.43998C22.1856 7.34664 21.0559 6.53331 19.8065 5.99998C18.5572 5.43998 17.2015 5.15998 15.7395 5.15998C14.2775 5.15998 12.9351 5.39998 11.7123 5.87998C10.5161 6.35998 9.46612 7.03998 8.56233 7.91998C7.68512 8.79998 6.99399 9.83998 6.48893 11.04C6.01046 12.24 5.77122 13.56 5.77122 15C5.77122 16.44 6.01046 17.76 6.48893 18.96C6.99399 20.16 7.68512 21.2 8.56233 22.08C9.46612 22.96 10.5161 23.64 11.7123 24.12C12.9351 24.6 14.2775 24.84 15.7395 24.84C17.2015 24.84 18.5572 24.5733 19.8065 24.04C21.0559 23.48 22.1856 22.64 23.1957 21.52L26.5451 24.72C25.2426 26.24 23.6476 27.4 21.7603 28.2C19.873 29 17.773 29.4 15.4604 29.4Z" fill="#D50000"/>
<path d="M43.9568 29V24.68L43.6777 23.76V16.2C43.6777 14.7333 43.2391 13.6 42.3619 12.8C41.4847 11.9733 40.1556 11.56 38.3746 11.56C37.1784 11.56 35.9955 11.7466 34.8259 12.12C33.6829 12.4933 32.7126 13.0133 31.9152 13.68L29.9614 10.04C31.1044 9.15998 32.4601 8.50664 34.0284 8.07998C35.6234 7.62664 37.2714 7.39998 38.9727 7.39998C42.0562 7.39998 44.4353 8.14664 46.11 9.63998C47.8112 11.1066 48.6618 13.3866 48.6618 16.48V29H43.9568ZM37.2581 29.28C35.6632 29.28 34.2677 29.0133 33.0715 28.48C31.8753 27.92 30.9449 27.16 30.2804 26.2C29.6424 25.2133 29.3234 24.1066 29.3234 22.88C29.3234 21.68 29.6025 20.6 30.1607 19.64C30.7456 18.68 31.6892 17.92 32.9917 17.36C34.2943 16.8 36.0221 16.52 38.1752 16.52H44.3555V19.84H38.5341C36.8328 19.84 35.6898 20.12 35.105 20.68C34.5202 21.2133 34.2278 21.88 34.2278 22.68C34.2278 23.5866 34.5867 24.3066 35.3044 24.84C36.0221 25.3733 37.0189 25.64 38.2948 25.64C39.5176 25.64 40.6075 25.36 41.5644 24.8C42.548 24.24 43.2524 23.4133 43.6777 22.32L44.515 25.32C44.0366 26.5733 43.1726 27.5466 41.9233 28.24C40.7005 28.9333 39.1455 29.28 37.2581 29.28Z" fill="#D50000"/>
<path d="M55.0583 29V7.63998H59.8032V13.52L59.245 11.8C59.883 10.36 60.8798 9.26664 62.2355 8.51998C63.6178 7.77331 65.3323 7.39998 67.3791 7.39998V12.16C67.1665 12.1066 66.9671 12.08 66.781 12.08C66.5949 12.0533 66.4089 12.04 66.2228 12.04C64.3355 12.04 62.8336 12.6 61.7171 13.72C60.6007 14.8133 60.0425 16.4533 60.0425 18.64V29H55.0583Z" fill="#D50000"/>
</g>
</svg>
