<svg width="37" height="36" viewBox="0 0 37 36" fill="none" xmlns="http://www.w3.org/2000/svg">
<g id="car 1" clip-path="url(#clip0_2702_810)">
<path id="Vector" d="M36.6389 27.4851C36.5968 27.7734 36.5267 28.0546 36.4216 28.2726C36.2323 28.6593 36.0501 28.6945 35.3352 28.6593C34.41 28.6171 33.0853 28.6593 31.6835 28.7156C31.6835 29.1023 31.6976 29.2851 31.6976 29.2851C31.7887 30.3468 32.2653 30.382 32.4545 30.382H35.4684C35.7347 30.382 35.98 30.382 36.1693 30.2554C36.4146 30.0937 36.5197 29.6226 36.6108 28.8C36.6248 28.6804 36.6318 28.5257 36.6389 28.3429V28.3359C36.6389 28.2796 36.6459 28.2093 36.6459 28.132V28.0546C36.6459 27.8648 36.6459 27.6539 36.6389 27.4851ZM1.18767 27.4851C1.22973 27.7734 1.29982 28.0546 1.40495 28.2726C1.59419 28.6593 1.77642 28.6945 2.49133 28.6593C3.41651 28.6171 4.7412 28.6593 6.14299 28.7156C6.14299 29.1023 6.12897 29.2851 6.12897 29.2851C6.03785 30.3468 5.56125 30.382 5.372 30.382H2.35816C2.09183 30.382 1.86754 30.382 1.65727 30.2554C1.40495 30.1078 1.30682 29.6226 1.21571 28.8C1.20169 28.6804 1.19468 28.5257 1.18767 28.3429V28.3359C1.18767 28.2796 1.18066 28.2093 1.18066 28.132V28.0546C1.18767 27.8648 1.18767 27.6539 1.18767 27.4851Z" fill="white"/>
<path id="Vector_2" d="M36.8633 20.8547C36.8633 18.6961 36.5829 16.5867 36.4708 16.3547C36.3867 16.1859 35.847 15.7429 34.6204 14.9062C33.3798 14.0554 33.4079 14.182 33.1836 13.6265C33.3868 13.5633 33.5831 13.4437 33.7022 13.4297C33.9686 13.4015 33.9826 13.6547 34.5363 13.6547C35.09 13.6547 36.2885 13.507 36.5338 13.2609C36.7792 13.0148 36.8563 12.9304 36.8563 12.7125C36.8563 12.4945 36.7301 12.0445 36.4918 11.7773C36.2535 11.5101 35.2372 11.3765 34.6414 11.2992C34.0457 11.2219 33.9616 11.2992 33.8074 11.3976C33.5621 11.5523 33.548 12.9656 33.548 12.9656L32.9663 12.9797C32.5878 12.0445 32.0622 10.1601 31.2421 8.67654C30.345 7.05935 29.4058 6.5531 29.0133 6.42654C28.6278 6.30701 28.2773 6.22263 25.649 5.95544C22.9646 5.67419 20.8268 5.63904 18.9204 5.63904C17.014 5.63904 14.8763 5.68123 12.1918 5.95544C9.56348 6.22966 9.21303 6.30701 8.82754 6.42654C8.44205 6.54607 7.49585 7.05935 6.5987 8.67654C5.77866 10.1601 5.25299 12.0445 4.87451 12.9797L4.29276 12.9656C4.29276 12.9656 4.28575 11.5523 4.03343 11.3976C3.87924 11.2992 3.79513 11.2148 3.19937 11.2992C2.60361 11.3836 1.58732 11.5101 1.34901 11.7773C1.11071 12.0445 0.984548 12.4945 0.984548 12.7125C0.984548 12.9304 1.06165 13.0219 1.30696 13.2609C1.55227 13.507 2.7508 13.6547 3.3045 13.6547C3.85821 13.6547 3.87223 13.4015 4.13857 13.4297C4.25772 13.4437 4.46098 13.5633 4.65723 13.6265C4.42593 14.182 4.46098 14.0554 3.2204 14.9062C1.99383 15.75 1.44714 16.1859 1.37004 16.3547C1.2579 16.5867 0.977539 18.6961 0.977539 20.8547C0.977539 23.0133 1.13174 24.9539 1.13174 25.6429C1.13174 25.9312 1.13174 26.4375 1.19482 26.9226C1.23687 27.2109 1.29995 27.4922 1.41209 27.7101C1.60133 28.0969 1.77656 28.132 2.49848 28.0969C3.42366 28.0547 4.76236 28.0969 6.14312 28.1531C7.0683 28.1883 8.01451 28.2234 8.85558 28.2445C10.9583 28.2867 10.3415 27.9351 11.2386 27.9492C12.1358 27.9633 15.6753 28.1109 18.9134 28.1109C22.1515 28.1109 25.698 27.9633 26.5882 27.9492C27.4853 27.9351 26.8685 28.2867 28.9712 28.2445C29.8123 28.2304 30.7585 28.1883 31.6837 28.1531C33.0644 28.1039 34.4101 28.0547 35.3283 28.0969C36.0502 28.132 36.2255 28.0969 36.4147 27.7101C36.5198 27.4922 36.5899 27.2109 36.632 26.9226C36.7021 26.4375 36.6951 25.9312 36.6951 25.6429C36.7091 24.9609 36.8633 23.0133 36.8633 20.8547ZM7.01924 10.2094C7.35567 9.42185 8.36495 7.83982 8.85558 7.55857C8.97473 7.48826 10.0191 7.15779 12.6334 6.98201C15.0375 6.82029 17.6938 6.75701 18.9274 6.75701C20.161 6.75701 22.8174 6.82029 25.2214 6.98201C27.8288 7.15779 28.8871 7.48123 28.9992 7.55857C29.6301 7.99451 30.4992 9.42185 30.8356 10.2094C31.172 10.9969 31.6206 12.5437 31.5365 12.7547C31.4524 12.9656 31.6206 13.0711 30.4851 12.9797C29.3567 12.8953 22.2707 12.8039 18.9344 12.8039C15.6052 12.8039 8.51915 12.8953 7.3837 12.9797C6.24826 13.064 6.41647 12.9656 6.33236 12.7547C6.23424 12.5437 6.68281 11.0039 7.01924 10.2094ZM9.59853 19.0125C9.09388 19.139 8.7925 19.4133 8.16169 19.4062C7.53089 19.4062 5.82772 19.1179 5.46326 19.1039C5.09879 19.0898 4.77638 19.35 4.58714 19.3992C4.3979 19.4484 4.02642 19.3148 3.46571 19.139C2.905 18.9633 2.57558 19.0125 2.39334 18.2461C2.2041 17.4867 2.39334 16.3969 2.39334 16.3969C3.60589 16.3406 4.77638 16.4531 6.97018 17.0719C9.16397 17.6906 10.3835 18.8789 10.3835 18.8789C10.3835 18.8789 10.1032 18.8859 9.59853 19.0125ZM26.0835 24.5531C25.0813 24.6867 20.8829 24.7219 18.9204 24.7219C16.9579 24.7219 12.7596 24.6797 11.7573 24.5531C10.734 24.4195 9.40228 23.189 10.3204 22.2117C11.561 20.8828 11.3297 20.925 14.1473 20.5594C16.5864 20.2429 18.4368 20.2289 18.9204 20.2289C19.397 20.2289 21.2544 20.25 23.6935 20.5594C26.5111 20.925 26.2798 20.8828 27.5204 22.2117C28.4385 23.189 27.1068 24.4195 26.0835 24.5531ZM35.4475 18.2531C35.2582 19.0125 34.9358 18.9703 34.3751 19.1461C33.8144 19.3218 33.4429 19.4484 33.2537 19.4062C33.0644 19.364 32.742 19.1039 32.3776 19.1109C32.0131 19.125 30.3099 19.4133 29.6791 19.4133C29.0483 19.4133 28.7469 19.1461 28.2423 19.0195C27.7376 18.8929 27.4573 18.8929 27.4573 18.8929C27.4573 18.8929 28.6698 17.6976 30.8706 17.0859C33.0644 16.4672 34.2349 16.3547 35.4475 16.4109C35.4475 16.3969 35.6367 17.4867 35.4475 18.2531Z" fill="white"/>
</g>
<defs>
<clipPath id="clip0_2702_810">
<rect width="35.8857" height="36" fill="white" transform="translate(0.977539)"/>
</clipPath>
</defs>
</svg>
