<svg width="114" height="31" viewBox="0 0 114 31" fill="none" xmlns="http://www.w3.org/2000/svg">
<g id="Trade">
<path d="M9.98199 29.9999V6.39995H0.731445V1.99995H24.416V6.39995H15.1655V29.9999H9.98199Z" fill="#121212"/>
<path d="M27.3215 29.9999V8.63995H32.0664V14.5199L31.5081 12.7999C32.1461 11.3599 33.1429 10.2666 34.4986 9.51995C35.8809 8.77328 37.5954 8.39995 39.6422 8.39995V13.1599C39.4296 13.1066 39.2302 13.0799 39.0441 13.0799C38.8581 13.0533 38.672 13.0399 38.4859 13.0399C36.5986 13.0399 35.0967 13.5999 33.9803 14.7199C32.8638 15.8133 32.3056 17.4533 32.3056 19.6399V29.9999H27.3215Z" fill="#121212"/>
<path d="M55.47 29.9999V25.6799L55.1908 24.7599V17.1999C55.1908 15.7333 54.7522 14.5999 53.875 13.7999C52.9978 12.9733 51.6687 12.5599 49.8877 12.5599C48.6915 12.5599 47.5086 12.7466 46.339 13.1199C45.196 13.4933 44.2258 14.0133 43.4283 14.6799L41.4745 11.0399C42.6175 10.1599 43.9732 9.50661 45.5416 9.07995C47.1365 8.62661 48.7846 8.39995 50.4858 8.39995C53.5693 8.39995 55.9484 9.14661 57.6231 10.6399C59.3243 12.1066 60.175 14.3866 60.175 17.4799V29.9999H55.47ZM48.7713 30.2799C47.1764 30.2799 45.7808 30.0133 44.5846 29.4799C43.3884 28.9199 42.4581 28.1599 41.7935 27.1999C41.1555 26.2133 40.8366 25.1066 40.8366 23.8799C40.8366 22.6799 41.1157 21.5999 41.6739 20.6399C42.2587 19.6799 43.2024 18.9199 44.5049 18.3599C45.8074 17.7999 47.5352 17.5199 49.6884 17.5199H55.8687V20.8399H50.0472C48.346 20.8399 47.2029 21.1199 46.6181 21.6799C46.0333 22.2133 45.7409 22.8799 45.7409 23.6799C45.7409 24.5866 46.0998 25.3066 46.8175 25.8399C47.5352 26.3733 48.532 26.6399 49.808 26.6399C51.0308 26.6399 52.1206 26.3599 53.0776 25.7999C54.0611 25.2399 54.7655 24.4133 55.1908 23.3199L56.0282 26.3199C55.5497 27.5733 54.6858 28.5466 53.4364 29.2399C52.2137 29.9333 50.6586 30.2799 48.7713 30.2799Z" fill="#121212"/>
<path d="M75.6217 30.2799C73.5749 30.2799 71.7275 29.8266 70.0794 28.9199C68.4579 27.9866 67.1819 26.7066 66.2516 25.0799C65.3212 23.4533 64.856 21.5333 64.856 19.3199C64.856 17.1066 65.3212 15.1866 66.2516 13.5599C67.1819 11.9333 68.4579 10.6666 70.0794 9.75995C71.7275 8.85328 73.5749 8.39995 75.6217 8.39995C77.4027 8.39995 78.9976 8.79995 80.4065 9.59995C81.8153 10.3733 82.9318 11.5599 83.7558 13.1599C84.5799 14.7599 84.9919 16.8133 84.9919 19.3199C84.9919 21.7999 84.5932 23.8533 83.7957 25.4799C82.9982 27.0799 81.8951 28.2799 80.4862 29.0799C79.0774 29.8799 77.4559 30.2799 75.6217 30.2799ZM76.2198 25.9999C77.416 25.9999 78.4793 25.7333 79.4097 25.1999C80.3666 24.6666 81.1242 23.8933 81.6824 22.8799C82.2672 21.8666 82.5596 20.6799 82.5596 19.3199C82.5596 17.9333 82.2672 16.7466 81.6824 15.7599C81.1242 14.7466 80.3666 13.9733 79.4097 13.4399C78.4793 12.9066 77.416 12.6399 76.2198 12.6399C75.0236 12.6399 73.9471 12.9066 72.9901 13.4399C72.0597 13.9733 71.3021 14.7466 70.7173 15.7599C70.1591 16.7466 69.88 17.9333 69.88 19.3199C69.88 20.6799 70.1591 21.8666 70.7173 22.8799C71.3021 23.8933 72.0597 24.6666 72.9901 25.1999C73.9471 25.7333 75.0236 25.9999 76.2198 25.9999ZM82.6792 29.9999V24.9599L82.8786 19.2799L82.4799 13.5999V0.319946H87.4241V29.9999H82.6792Z" fill="#121212"/>
<path d="M103.992 30.2799C101.627 30.2799 99.5531 29.8133 97.7721 28.8799C96.0177 27.9199 94.6487 26.6133 93.6652 24.9599C92.7083 23.3066 92.2298 21.4266 92.2298 19.3199C92.2298 17.1866 92.695 15.3066 93.6253 13.6799C94.5823 12.0266 95.8848 10.7333 97.5329 9.79995C99.2076 8.86661 101.108 8.39995 103.235 8.39995C105.308 8.39995 107.156 8.85328 108.777 9.75995C110.399 10.6666 111.675 11.9466 112.605 13.5999C113.535 15.2533 114 17.1999 114 19.4399C114 19.6533 113.987 19.8933 113.961 20.1599C113.961 20.4266 113.947 20.6799 113.921 20.9199H96.1772V17.5999H111.289L109.335 18.6399C109.362 17.4133 109.109 16.3333 108.578 15.3999C108.046 14.4666 107.315 13.7333 106.385 13.1999C105.481 12.6666 104.431 12.3999 103.235 12.3999C102.012 12.3999 100.935 12.6666 100.005 13.1999C99.1012 13.7333 98.3835 14.4799 97.8519 15.4399C97.3468 16.3733 97.0943 17.4799 97.0943 18.7599V19.5599C97.0943 20.8399 97.3867 21.9733 97.9715 22.9599C98.5563 23.9466 99.3803 24.7066 100.444 25.2399C101.507 25.7733 102.73 26.0399 104.112 26.0399C105.308 26.0399 106.385 25.8533 107.342 25.4799C108.299 25.1066 109.149 24.5199 109.894 23.7199L112.565 26.7999C111.608 27.9199 110.399 28.7866 108.937 29.3999C107.501 29.9866 105.853 30.2799 103.992 30.2799Z" fill="#121212"/>
</g>
</svg>
